<?xml version="1.0" standalone="no"?>
<!DOCTYPE svg PUBLIC "-//W3C//DTD SVG 20010904//EN"
 "http://www.w3.org/TR/2001/REC-SVG-20010904/DTD/svg10.dtd">
<svg version="1.0" xmlns="http://www.w3.org/2000/svg"
 width="300.000000pt" height="300.000000pt" viewBox="0 0 300.000000 300.000000"
 preserveAspectRatio="xMidYMid meet">
<metadata>
Created by potrace 1.11, written by Peter Selinger 2001-2013
</metadata>
<g transform="translate(0.000000,300.000000) scale(0.100000,-0.100000)"
fill="#000000" stroke="none">
<path d="M0 1500 l0 -1500 1500 0 1500 0 0 1500 0 1500 -1500 0 -1500 0 0
-1500z m1119 567 c20 -10 43 -67 143 -357 242 -696 278 -804 278 -821 0 -29
-32 -39 -124 -39 -128 0 -124 -4 -176 154 l-44 136 -226 0 -226 0 -44 -136
c-50 -157 -47 -154 -170 -154 -58 0 -83 4 -94 16 -9 8 -16 19 -16 24 0 7 296
868 377 1098 18 50 33 77 47 82 33 14 248 11 275 -3z m1094 -11 c191 -37 295
-148 305 -325 16 -288 -158 -450 -485 -451 l-93 0 0 -204 0 -204 -36 -12 c-46
-15 -176 -9 -198 9 -15 13 -16 63 -14 588 l3 575 24 19 c21 17 41 19 221 19
131 0 224 -5 273 -14z"/>
<path d="M885 1593 c-43 -131 -80 -244 -82 -250 -4 -10 33 -13 165 -13 l170 0
-82 250 c-44 137 -84 250 -87 250 -3 0 -41 -107 -84 -237z"/>
<path d="M1940 1676 l0 -206 76 0 c96 0 149 16 189 55 58 59 74 186 32 265
-34 64 -79 84 -199 88 l-98 4 0 -206z"/>
</g>
</svg>
